/* XPM */
static const char *about[] = {
/* columns rows colors chars-per-pixel */
"64 64 155 2 ",
"   c #10528E",
".  c #0E5494",
"X  c #0E5699",
"o  c #0E599D",
"O  c #125B9C",
"+  c #0F5DA3",
"@  c #0F5FA9",
"#  c #115DA1",
"$  c #105FA8",
"%  c #0F60AB",
"&  c #1364AD",
"*  c #1867AE",
"=  c #1768AF",
"-  c #1868AF",
";  c #1667B0",
":  c #1768B0",
">  c #1B6CB3",
",  c #1E71B6",
"<  c #1E72B8",
"1  c #2072B7",
"2  c #2275B9",
"3  c #2579BB",
"4  c #297CBD",
"5  c #2A7FC0",
"6  c #2D80BF",
"7  c #3883BF",
"8  c #2D82C2",
"9  c #3186C4",
"0  c #3489C6",
"q  c #3A8CC6",
"w  c #368CC8",
"e  c #398EC9",
"r  c #3D92CC",
"t  c #428BC2",
"y  c #488FC4",
"u  c #4E91C7",
"i  c #4196CE",
"p  c #4398CF",
"a  c #4898CE",
"s  c #5593C4",
"d  c #5497C8",
"f  c #579BCD",
"g  c #5A9CCB",
"h  c #4197D0",
"j  c #459AD1",
"k  c #4A9DD3",
"l  c #509ED2",
"z  c #619DCB",
"x  c #4EA1D5",
"c  c #51A4D6",
"v  c #5AA6D6",
"b  c #54A6D9",
"n  c #5CA7D9",
"m  c #56A8DA",
"M  c #5BACDC",
"N  c #5FB0DE",
"B  c #66A0CE",
"V  c #73A7CF",
"C  c #63A4D2",
"Z  c #62ADDC",
"A  c #6CAED8",
"S  c #79AED4",
"D  c #62B1DF",
"F  c #6BB2DE",
"G  c #77B1D7",
"H  c #7CB0D5",
"J  c #70B3DC",
"K  c #7FB5DA",
"L  c #5EAFE0",
"P  c #65B3E1",
"I  c #6AB6E2",
"U  c #6DB9E4",
"Y  c #71B6E1",
"T  c #73BDE6",
"R  c #7BBCE4",
"E  c #76BFE8",
"W  c #7CBFE8",
"Q  c #77C0E7",
"!  c #79C0E7",
"~  c #77C0E8",
"^  c #7BC2E9",
"/  c #8AB7D7",
"(  c #82B6DA",
")  c #88B7DA",
"_  c #87B9DC",
"`  c #8BB8D9",
"'  c #90B7D5",
"]  c #92BEDE",
"[  c #98BEDA",
"{  c #81BBE0",
"}  c #94C0DD",
"|  c #98C0DF",
" . c #A0C3DD",
".. c #ACC7DD",
"X. c #B2CBDE",
"o. c #85C1E6",
"O. c #8BC3E5",
"+. c #82C6EB",
"@. c #8CC6E9",
"#. c #85C9ED",
"$. c #8BCBEE",
"%. c #91C4E3",
"&. c #9EC6E2",
"*. c #93CBEB",
"=. c #9ACFED",
"-. c #8ECEF0",
";. c #90CFF1",
":. c #94D1F2",
">. c #9BD5F4",
",. c #A6C7E0",
"<. c #A4C8E2",
"1. c #ADCFE7",
"2. c #B7CEE1",
"3. c #A3D2EE",
"4. c #AED2EA",
"5. c #B2D3E9",
"6. c #BAD6E9",
"7. c #B4D9EE",
"8. c #B8D8EC",
"9. c #A2D7F4",
"0. c #A3D8F6",
"q. c #ACDCF5",
"w. c #B1DFF6",
"e. c #BBDEF1",
"r. c #B1DFF8",
"t. c #B4E0F6",
"y. c #BEE3F6",
"u. c #B4E1F8",
"i. c #C2D5E5",
"p. c #CBDAE7",
"a. c #C4DCEC",
"s. c #CDDDEA",
"d. c #CBE0EF",
"f. c #D4E1ED",
"g. c #D9E5EE",
"h. c #C5E3F4",
"j. c #CFE2F0",
"k. c #C0E5F9",
"l. c #C3E8FA",
"z. c #CBEBFA",
"x. c #D2E5F2",
"c. c #DDE7F0",
"v. c #D6E9F5",
"b. c #DBE9F3",
"n. c #DDEEF8",
"m. c #DBF3FC",
"M. c #E1EAF2",
"N. c #E8F0F6",
"B. c #E4F4FC",
"V. c #EBF3F9",
"C. c #EDF9FE",
"Z. c #F1F7FA",
"A. c #F6FBFE",
"S. c #F9FDFF",
"D. c None",
/* pixels */
"D.D.D.D.D.D.D.D.D.D.D.D.D.D.D.D.D.D.D.D.D.D.D.D.D.D.D.D.D.D.D.D.D.D.D.D.D.D.D.D.D.D.D.D.D.D.D.D.D.D.D.D.D.D.D.D.D.D.D.D.D.D.D.D.",
"D.D.D.D.D.D.D.D.D.D.D.D.D.D.D.D.D.D.D.D.D.D.D.D.D.D.D.D.D.D.D.D.D.D.D.D.D.D.D.D.D.D.D.D.D.D.D.D.D.D.D.D.D.D.D.D.D.D.D.D.D.D.D.D.",
"D.D.D.D.D.D.D.D.D.D.D.D.D.D.D.D.D.D.D.D.D.D.D.D.D.C.B.m.z.l.u.0.=.$.o.T Z Z M D.D.D.D.D.D.D.D.D.D.D.D.D.D.D.D.D.D.D.D.D.D.D.D.D.",
"D.D.D.D.D.D.D.D.D.D.D.D.D.D.D.D.D.D.D.D.D.D.S.S.S.C.m.z.y.u.r.q.q.q.q.q.w.3.*.R Z m n D.D.D.D.D.D.D.D.D.D.D.D.D.D.D.D.D.D.D.D.D.",
"D.D.D.D.D.D.D.D.D.D.D.D.D.D.D.D.D.D.D.z.m.B.B.z.u.0.0.0.0.>.0.0.0.0.0.0.9.9.0.0.0.3.R Z n D.D.D.D.D.D.D.D.D.D.D.D.D.D.D.D.D.D.D.",
"D.D.D.D.D.D.D.D.D.D.D.D.D.D.D.D.D.:.u.z.z.r.0.>.0.>.>.>.0.>.0.>.>.>.>.>.>.9.>.>.>.>.0.q.O.Z n D.D.D.D.D.D.D.D.D.D.D.D.D.D.D.D.D.",
"D.D.D.D.D.D.D.D.D.D.D.D.D.D.D.D.^ w.y.0.>.>.>.>.>.>.>.>.>.>.>.>.>.>.>.>.>.>.>.0.>.>.>.>.>.0.o.Z D.D.D.D.D.D.D.D.D.D.D.D.D.D.D.D.",
"D.D.D.D.D.D.D.D.D.D.D.D.D.D.I o.q.0.>.>.>.>.>.>.>.>.>.>.>.>.>.>.>.>.>.>.>.>.>.>.>.>.>.>.>.:.>.>.Y n D.D.D.D.D.D.D.D.D.D.D.D.D.D.",
"D.D.D.D.D.D.D.D.D.D.D.D.D.Z @.q.:.:.:.:.:.>.:.:.>.:.>.:.:.:.:.=.>.>.:.>.>.:.>.>.>.>.:.:.:.:.:.:.>.{ n D.D.D.D.D.D.D.D.D.D.D.D.D.",
"D.D.D.D.D.D.D.D.D.D.D.D.Z @.>.;.:.:.:.:.:.:.:.:.:.:.:.:.:.:.>.:.:.:.:.:.:.:.;.:.;.;.:.:.:.:.:.:.:.>.*.Z D.D.D.D.D.D.D.D.D.D.D.D.",
"D.D.D.D.D.D.D.D.D.D.D.Z @.;.*.-.:.;.;.:.:.;.-.:.-.:.:.:.:.:.:.;.;.;.;.;.;.;.;.;.;.;.;.;.-.-.-.-.;.;.-.*.D D.D.D.D.D.D.D.D.D.D.D.",
"D.D.D.D.D.D.D.D.D.D.n @.-.-.-.-.$.;.$.$.-.-.-.-.-.-.-.-.;.-.-.-.;.;.;.;.-.*.@.@.;.;.;.;.-.-.-.-.-.-.-.;.*.Z D.D.D.D.D.D.D.D.D.D.",
"D.D.D.D.D.D.D.D.D.n +.$.$.$.$.$.$.$.$.$.$.$.$.$.$.$.$.-.$.-.$.-.-.-.$.O...p.f.i.] $.$.$.$.$.$.$.-.-.$.#.-.$.Z D.D.D.D.D.D.D.D.D.",
"D.D.D.D.D.D.D.D.D.W #.#.#.#.#.#.#.$.$.#.$.$.$.$.$.$.$.$.$.$.$.$.-.#.] M.S.S.S.S.Z. .$.$.#.$.#.#.+.#.#.#.#.#.o.n D.D.D.D.D.D.D.D.",
"D.D.D.D.D.D.D.D.I $.#.#.+.#.+.+.$.#.$.^ #.#.#.#.#.#.#.#.#.#.#.#.#.+.x.S.S.S.S.S.S.M.@.#.#.#.^ #.+.#.+.+.+.+.#.R D.D.D.D.D.D.D.D.",
"D.D.D.D.D.D.D.Z @.^ ^ +.^ #.^ +.^ #.^ #.#.^ #.#.^ #.#.#.#.+.#.#.#.&.S.S.S.S.S.S.S.S.%.+.#.#.#.#.^ +.+.^ +.+.^ @.F D.D.D.D.D.D.D.",
"D.D.D.D.D.D.D.W ~ ^ ^ ^ ^ ^ ^ ~ ^ #.^ ^ ^ ^ #.^ ^ ^ #.#.#.^ +.+.+.5.S.S.S.S.S.S.S.S.*.^ #.^ ^ ^ ^ ^ ^ ^ ^ ^ ^ ^ ^ D.D.D.D.D.D.D.",
"D.D.D.D.D.D.I o.~ ~ ~ ^ ~ ^ ~ ~ ^ ^ ^ ^ #.^ ^ ^ ^ ^ ^ ^ ^ ^ ^ ^ ^ 5.S.S.S.S.A.S.S.Z.^ ^ ^ ^ ^ ~ ^ ^ ^ ^ ~ ~ ~ ~ ^ E D.D.D.D.D.D.",
"D.D.D.D.D.D.W T ~ U U ~ ~ ~ ~ ~ ~ ~ ~ ~ ^ ^ ^ ^ Q ^ Q Q ^ ^ ^ ^ ^ O.A.S.S.S.S.S.S.7.~ ~ ^ ~ Q Q ~ ~ ^ ~ ~ ~ T ~ E ^ D.D.D.D.D.D.",
"D.D.D.D.D.I E T ~ U ~ ~ ~ ~ ~ ~ ~ ~ ~ ~ ~ ~ ~ ~ Q Q Q Q ^ Q Q Q Q ^ 7.S.S.S.S.S.e.! Q Q ~ Q Q Q ~ T ~ ~ T ~ U ~ T T U D.D.D.D.D.",
"D.D.D.D.D.R I U U ~ U ~ U T U ~ Q U ~ ~ ~ U ~ ~ Q U Q Q Q T Q T Q Q T *.e.h.e.#.Q Q T T Q Q U Q T T ~ T U U U U U U E D.D.D.D.D.",
"D.D.D.D.D.T I U U U I U U T U U I Q U U U ~ T U Q Q Q I T Q U T T T T U U Q Q U T T T Y U Q U U U U U U U U U U U U U I D.D.D.D.",
"D.D.D.D.T P I I I I I U U U U I U U U U U U U U Q I U Q U U U T U J F J U U U U T T U U U U Q U U I I I U U I U I I I U D.D.D.D.",
"D.D.D.D.U P P P P P P I P I P I I P I I U U I U U I I U F U G / X.p.g.f.2.K U I I I I I U I D I U I I I P P P P P P I U D.D.D.D.",
"D.D.D.D.I P L P P P P P P P P P P P P P F I F P I I I U A [ c.A.S.S.S.S.S.V.K F I I D I I D I P P P P P P P P L L N P P D.D.D.D.",
"D.D.D.D.L L L M M N P N D P D P P P P P D D I I D P N G d.S.S.S.S.S.S.S.S.S.8.D F D I D D I D D D P P D N P M P N L M L I D.D.D.",
"D.D.D.D.M M M M M M M M N D N N N N P P D D D D D D ` N.A.n.S.A.S.S.S.S.S.S.f.D D D D N D N D N N N L P N M L M L L M L I D.D.D.",
"D.D.D.F b M M M M M M M M M M M N M N N N N N N D ' C.v.F M d.S.S.S.S.A.S.S.d.N N N N N N N N N M M M M M M m L M m m b Z D.D.D.",
"D.D.D.D b m b m m M m m M m M M m M N m N N N M / Z.d.F M M s.S.S.S.S.S.A.S.5.M N M m N M N N M M M n m L m m m m b b b n D.D.D.",
"D.D.D.n b b b c b b m b m m m m m m m m m m m H Z.b.N M M A C.S.S.S.S.S.S.S.K M N m m M m m b m m m m m b b b b b b b c m D.D.D.",
"D.D.D.m k c x c c b c c b b b m m m b m b m v b.N.F b m b ..S.S.A.S.S.S.S.B.M m b m m b b b m b m b b b b c c c c c c c b D.D.D.",
"D.D.D.b k b k b x x c c c b x x c b c b b b A v.F b b b v c.S.S.S.S.S.S.S.4.b b b b b b b b b b x x b x c x x c c k x k b D.D.D.",
"D.D.D.x k k k k k k x x x x x x x x x x c x c x x b b x ( Z.S.S.S.S.S.S.S.A c c x x x x x x x x x x x x x x k k x k x k x D.D.D.",
"D.D.D.c p k j k k k k k k x k x x x x x x x x x x x x x p.S.S.S.S.S.S.S.b.x x x x x x x x x x x x j j x k k k k k j j k j D.D.D.",
"D.D.D.l j p i p p p k k h k k k a k k k k k k k x x x B Z.S.S.S.S.A.S.S.%.k x k x x r x x x x x x x x r j k k j p j j j x D.D.D.",
"D.D.D.D.i i i i p p p h h h h j h k j k p k k k k k k | S.S.S.S.S.S.S.Z.v k k k x r x x x r r x r r x r p j r j r p r r p D.D.D.",
"D.D.D.D.r i r i r r p r r h h k p p k p p p p p r j x c.S.S.A.S.S.S.S.a.i p p p j r x x x r r j j r j r r p r r r r r r a D.D.D.",
"D.D.D.D.r r e r r r r r r r r r r r r r i i p i p r H S.S.S.S.S.S.S.S.K p i p p j r r r r j r r j r r r r r r r r w r r D.D.D.D.",
"D.D.D.D.r w r w e r r r r r r r r r r r r r r r i r i.S.S.S.S.A.S.S.V.p i r r i r r r r r r r r r r r r r r e e e e e r D.D.D.D.",
"D.D.D.D.q 0 q w w w w w e e e w r r r r r r r r r g C.S.S.S.S.S.S.S.1.r r r r r r r r r r r e e r w w w r w w w w e w e D.D.D.D.",
"D.D.D.D.D.0 0 0 0 0 0 w w w w w w w w r w w w r r [ S.S.S.S.S.S.S.S.C r r w e r w e e e w w e w w w w 0 0 0 0 0 0 0 0 w D.D.D.D.",
"D.D.D.D.D.0 9 9 9 9 0 0 0 0 0 w 0 w 0 w w w 0 w w g.S.S.S.S.S.S.S.b.w w e 0 g X.t e w 0 w w w 0 0 0 0 0 0 0 0 9 7 0 0 D.D.D.D.D.",
"D.D.D.D.D.9 9 8 9 9 5 9 9 0 9 0 0 9 0 0 0 0 0 0 z S.S.S.S.S.S.S.S.` 0 0 0 d M.x.0 0 0 0 0 0 9 8 9 0 9 9 9 9 9 9 6 9 9 D.D.D.D.D.",
"D.D.D.D.D.D.8 8 8 8 8 9 8 8 8 8 8 0 8 9 9 9 9 9  .S.S.S.S.S.S.S.Z.a 0 0 u c.Z.v 0 9 9 9 0 8 8 8 9 9 9 8 8 9 8 8 8 6 9 D.D.D.D.D.",
"D.D.D.D.D.D.8 4 9 4 4 4 8 8 8 8 8 8 8 6 8 8 8 8 g.S.S.S.S.S.S.S.c.8 9 t s.S._ 8 8 8 8 8 8 8 8 8 8 8 8 4 8 4 6 8 4 8 D.D.D.D.D.D.",
"D.D.D.D.D.D.D.4 4 4 4 9 4 4 6 6 6 6 6 6 8 8 6 r Z.S.S.S.S.S.S.S.s.9 s f.S.[ 3 8 8 8 6 6 8 8 8 5 4 8 8 4 4 6 4 4 4 6 D.D.D.D.D.D.",
"D.D.D.D.D.D.D.4 2 4 4 4 4 4 4 4 4 6 6 4 6 6 6 g S.S.S.S.S.S.S.S.Z.f.V.S.) 4 8 8 8 6 4 6 6 4 4 4 4 4 4 4 3 3 3 3 4 D.D.D.D.D.D.D.",
"D.D.D.D.D.D.D.D.4 2 2 3 2 4 3 4 3 3 3 4 4 3 4 V S.S.S.Z.S.S.S.S.S.S.V.B 4 4 4 4 6 4 3 4 4 4 4 4 3 4 3 2 3 3 3 4 D.D.D.D.D.D.D.D.",
"D.D.D.D.D.D.D.D.4 2 2 2 2 2 2 2 2 2 3 3 4 2 4 g S.S.S.S.S.S.S.S.S.7.q 3 3 3 3 4 3 4 4 2 3 2 3 2 3 2 2 2 2 2 2 4 D.D.D.D.D.D.D.D.",
"D.D.D.D.D.D.D.D.D.2 1 1 2 2 2 2 2 2 2 2 2 2 2 4 M.S.S.S.S.S.S.f.z 2 2 3 < 3 < 2 < 2 < 2 2 2 2 2 < 2 2 2 1 1 3 D.D.D.D.D.D.D.D.D.",
"D.D.D.D.D.D.D.D.D.D.2 1 1 2 1 1 2 , , 1 2 2 < 2 9 <.c.b.a.%.u < 2 2 < < 3 < 2 2 < 2 2 1 2 1 1 1 2 1 , , 1 1 D.D.D.D.D.D.D.D.D.D.",
"D.D.D.D.D.D.D.D.D.D.D.1 > > > > > 2 > 2 , , > < , , , , , , < < , , < < , < , < , , 2 > , , 1 > > , > > 1 D.D.D.D.D.D.D.D.D.D.D.",
"D.D.D.D.D.D.D.D.D.D.D.D.> > > > > > > > , > > > > , > , > , , > , , , , > , , > > < > > > > > > > > > > D.D.D.D.D.D.D.D.D.D.D.D.",
"D.D.D.D.D.D.D.D.D.D.D.D.D., - > > > > > > > > > > > > > > > > > - > > > > > > > > > > > > > > > > > > D.D.D.D.D.D.D.D.D.D.D.D.D.",
"D.D.D.D.D.D.D.D.D.D.D.D.D.D.> - - - * > > > > : - - > > > : > : > > - > > - > > > - > : - > & > * - D.D.D.D.D.D.D.D.D.D.D.D.D.D.",
"D.D.D.D.D.D.D.D.D.D.D.D.D.D.D.* - & * & * & - - - - - ; ; ; ; ; = - & = : = & : & > & ; - & - - - D.D.D.D.D.D.D.D.D.D.D.D.D.D.D.",
"D.D.D.D.D.D.D.D.D.D.D.D.D.D.D.D.D.& & & & & & & & & & & & & & & & & & & & = & & & & & & & & * D.D.D.D.D.D.D.D.D.D.D.D.D.D.D.D.D.",
"D.D.D.D.D.D.D.D.D.D.D.D.D.D.D.D.D.D.D.& = & & & & & & & & & & & & & & & & & & & & & & & & O D.D.D.D.D.D.D.D.D.D.D.D.D.D.D.D.D.D.",
"D.D.D.D.D.D.D.D.D.D.D.D.D.D.D.D.D.D.D.D.D.# & & & & % & & & & % % % & % % & & & & & #   D.D.D.D.D.D.D.D.D.D.D.D.D.D.D.D.D.D.D.D.",
"D.D.D.D.D.D.D.D.D.D.D.D.D.D.D.D.D.D.D.D.D.D.D.D.o @ & % % @ & % % & % % & % % o . D.D.D.D.D.D.D.D.D.D.D.D.D.D.D.D.D.D.D.D.D.D.D.",
"D.D.D.D.D.D.D.D.D.D.D.D.D.D.D.D.D.D.D.D.D.D.D.D.D.D.D.D.D.X X o o X . . D.D.D.D.D.D.D.D.D.D.D.D.D.D.D.D.D.D.D.D.D.D.D.D.D.D.D.D.",
"D.D.D.D.D.D.D.D.D.D.D.D.D.D.D.D.D.D.D.D.D.D.D.D.D.D.D.D.D.D.D.D.D.D.D.D.D.D.D.D.D.D.D.D.D.D.D.D.D.D.D.D.D.D.D.D.D.D.D.D.D.D.D.D.",
"D.D.D.D.D.D.D.D.D.D.D.D.D.D.D.D.D.D.D.D.D.D.D.D.D.D.D.D.D.D.D.D.D.D.D.D.D.D.D.D.D.D.D.D.D.D.D.D.D.D.D.D.D.D.D.D.D.D.D.D.D.D.D.D.",
"D.D.D.D.D.D.D.D.D.D.D.D.D.D.D.D.D.D.D.D.D.D.D.D.D.D.D.D.D.D.D.D.D.D.D.D.D.D.D.D.D.D.D.D.D.D.D.D.D.D.D.D.D.D.D.D.D.D.D.D.D.D.D.D."
};
